Coordinates
version=1
nRows=14
nColumns=38
inDegrees=no

Units are S.I. units (second, meters, Newtons, ...)
If the header above contains a line with 'inDegrees', this indicates whether rotational values are in degrees (yes) or radians (no).

endheader
time	pelvis_tilt	pelvis_list	pelvis_rotation	pelvis_tx	pelvis_ty	pelvis_tz	hip_flexion_r	hip_adduction_r	hip_rotation_r	knee_angle_r	ankle_angle_r	subtalar_angle_r	mtp_angle_r	hip_flexion_l	hip_adduction_l	hip_rotation_l	knee_angle_l	ankle_angle_l	subtalar_angle_l	mtp_angle_l	lumbar_extension	lumbar_bending	lumbar_rotation	arm_flex_r	arm_add_r	arm_rot_r	elbow_flex_r	pro_sup_r	wrist_flex_r	wrist_dev_r	arm_flex_l	arm_add_l	arm_rot_l	elbow_flex_l	pro_sup_l	wrist_flex_l	wrist_dev_l
21	2.77491	1.30217	-1.25868	0.668676	-0.481384	0.954992	-0.34169	0.0764731	-0.209874	0	-0.0913343	0	0	-0.376284	-0.101978	-0.271072	0	-0.01363	0	0	-0.386622	0.0843678	0.140725	0.0762785	-0.31527	0.88712	0.443183	0.899508	0	0	0.0758741	-0.18274	0.33232	0.517165	1.5708	0	0
21.01	2.77628	1.30162	-1.2595	0.668493	-0.481188	0.954979	-0.342645	0.0762355	-0.210279	0	-0.0919346	0	0	-0.377185	-0.101796	-0.270417	0	-0.0136708	0	0	-0.387336	0.0844797	0.140226	0.0774827	-0.315159	0.889148	0.443545	0.906191	0	0	0.0764701	-0.181942	0.329289	0.51914	1.5708	0	0
21.02	2.77498	1.30841	-1.25679	0.668544	-0.480239	0.954635	-0.335927	0.0752384	-0.212351	0	-0.0920527	0	0	-0.36992	-0.100861	-0.267795	0	-0.0144265	0	0	-0.377885	0.0796901	0.136155	0.0707955	-0.320416	0.816605	0.473684	0.841908	0	0	0.0744847	-0.183227	0.325197	0.520152	1.5708	0	0
21.03	2.77438	1.30845	-1.25632	0.668425	-0.479933	0.954578	-0.336202	0.0751142	-0.212133	0	-0.0920812	0	0	-0.370293	-0.100795	-0.267475	0	-0.0144148	0	0	-0.377661	0.0796298	0.137652	0.0700783	-0.313521	0.769074	0.464291	0.775364	0	0	0.0755439	-0.182259	0.32458	0.520824	1.5708	0	0
21.04	2.75349	1.30962	-1.23491	0.669664	-0.480789	0.954419	-0.331895	0.0827882	-0.211952	0	-0.0938775	0	0	-0.366355	-0.107511	-0.273985	0	-0.0176268	0	0	-0.376837	0.0818331	0.139286	0.0731146	-0.303913	0.729959	0.453188	0.709815	0	0	0.0782509	-0.18516	0.325602	0.523407	1.5708	0	0
21.05	2.77512	1.30745	-1.2555	0.668015	-0.479545	0.954594	-0.337897	0.0753586	-0.212903	0	-0.0920086	0	0	-0.371693	-0.10111	-0.265388	0	-0.0141808	0	0	-0.378714	0.0799303	0.137883	0.0714521	-0.302278	0.692906	0.446201	0.645104	0	0	0.0768433	-0.181484	0.32581	0.523538	1.5708	0	0
21.06	2.77872	1.30581	-1.25716	0.667679	-0.479499	0.954726	-0.340127	0.0753056	-0.214484	0	-0.0923887	0	0	-0.373409	-0.101079	-0.262855	0	-0.0146305	0	0	-0.381002	0.0799062	0.136695	0.0731197	-0.29783	0.661541	0.438182	0.582682	0	0	0.0777477	-0.181053	0.324276	0.525701	1.5708	0	0
21.07	2.77911	1.30506	-1.25686	0.667497	-0.479313	0.954768	-0.341193	0.0755397	-0.214995	0	-0.0929492	0	0	-0.37434	-0.101238	-0.262373	0	-0.0143984	0	0	-0.381718	0.0800685	0.1366	0.0747535	-0.293751	0.63383	0.429585	0.52306	0	0	0.0778671	-0.180705	0.323555	0.527454	1.5708	0	0
21.08	2.77779	1.30504	-1.25637	0.667475	-0.478937	0.954721	-0.341533	0.0755617	-0.214291	0	-0.0929127	0	0	-0.375059	-0.101174	-0.263959	0	-0.0138582	0	0	-0.381161	0.0800024	0.137766	0.0761397	-0.289953	0.609388	0.420719	0.466473	0	0	0.078241	-0.179611	0.321611	0.526865	1.5708	0	0
21.09	2.77755	1.30498	-1.25648	0.667321	-0.47862	0.954692	-0.342091	0.0753216	-0.213807	0	-0.0928372	0	0	-0.375762	-0.100832	-0.264678	0	-0.0139279	0	0	-0.380763	0.0800489	0.138257	0.077798	-0.286717	0.588315	0.411807	0.412976	0	0	0.0787733	-0.178189	0.320072	0.525088	1.5708	0	0
21.1	2.77735	1.30482	-1.25578	0.667087	-0.478372	0.954661	-0.34268	0.0753976	-0.214252	0	-0.0929883	0	0	-0.376212	-0.100755	-0.264425	0	-0.0138938	0	0	-0.380608	0.0803678	0.137788	0.0796387	-0.283906	0.569507	0.403479	0.362798	0	0	0.0788438	-0.177226	0.319004	0.524268	1.5708	0	0
21.11	2.77765	1.30432	-1.25551	0.666878	-0.478146	0.954674	-0.343606	0.0754956	-0.214802	0	-0.0930173	0	0	-0.377069	-0.1008	-0.264037	0	-0.0138697	0	0	-0.380876	0.0805786	0.137249	0.0814147	-0.281394	0.552299	0.395883	0.315985	0	0	0.0787446	-0.176758	0.318966	0.523967	1.5708	0	0
21.12	2.77779	1.30377	-1.25534	0.666701	-0.47792	0.954714	-0.344545	0.0755826	-0.215213	0	-0.093193	0	0	-0.378086	-0.100837	-0.264149	0	-0.0136972	0	0	-0.381207	0.0808205	0.136756	0.0832648	-0.279158	0.536995	0.388747	0.272425	0	0	0.0789418	-0.176343	0.320336	0.522504	1.5708	0	0
21.13	2.77727	1.30331	-1.2547	0.666537	-0.477632	0.954736	-0.34538	0.0757818	-0.215459	0	-0.0935047	0	0	-0.379084	-0.100989	-0.264526	0	-0.0134671	0	0	-0.381288	0.0811537	0.136443	0.0848406	-0.277289	0.523088	0.382433	0.231998	0	0	0.0793573	-0.175813	0.322383	0.520087	1.5708	0	0
